<svg xmlns="http://www.w3.org/2000/svg" viewBox="0 0 64 64">
  <rect width="64" height="64" rx="16" fill="#f8f7f3"/>
  <rect x="13" y="9" width="38" height="22" rx="5" fill="#ffbd16"/>
  <path d="M28 31h8l-4 5Z" fill="#ffbd16"/>
  <rect x="30" y="31" width="4" height="22" rx="2" fill="#072b63"/>
  <circle cx="20" cy="39" r="5" fill="#072b63"/>
  <path d="M13 55V47c0-5 3-8 7-8 4 0 7 5 11 7l-3 5c-3-2-5-4-7-5v9Z" fill="#072b63"/>
  <circle cx="44" cy="39" r="5" fill="#ffbd16"/>
  <path d="M51 55V47c0-5-3-8-7-8-4 0-7 5-11 7l3 5c3-2 5-4 7-5v9Z" fill="#ffbd16"/>
</svg>
